<svg width="416" height="377" viewBox="0 0 416 377" fill="none" xmlns="http://www.w3.org/2000/svg">
<path opacity="0.1" fill-rule="evenodd" clip-rule="evenodd" d="M301.76 1.3667C305.727 2.54687 307.078 2.87223 315.158 4.5906L320.11 5.64308L339.043 5.56495L357.975 5.48681L359.994 6.46582C361.105 7.0046 362.809 8.62617 363.781 10.0693L365.548 12.6932L365.488 20.2734L365.428 27.8536L364.136 32.5183C360.936 44.0798 356.059 52.7585 350.498 56.7912C345.601 60.3416 341.429 58.5748 327.739 47.1539C317.971 39.0052 317.269 38.4932 312.537 36.0699L308.459 33.9818L304.915 33.9789C300.846 33.9754 300.206 33.6227 301.557 32.1282C302.878 30.6676 307.015 30.7335 311.08 32.2798C315.264 33.8711 320.199 37.4151 329.139 45.2466C338.309 53.2792 340.01 54.5754 340.765 54.1084C341.1 53.9014 341.373 51.8192 341.373 49.4804C341.373 47.1422 341.612 44.4681 341.905 43.5381C342.198 42.6087 343.004 39.355 343.697 36.3084C346.312 24.8075 349.423 17.1533 353.531 12.1101C354.837 10.5066 355.978 8.97311 356.066 8.70256C356.155 8.432 349.281 8.23609 340.79 8.26757L325.353 8.32472L320.401 7.4699C311.14 5.87224 309.044 5.44658 304.381 4.21859C301.818 3.54338 298.699 2.73696 297.452 2.42675L295.182 1.86233L293.823 3.13987C291.619 5.21218 287.698 12.1725 287.375 14.5859L287.075 16.8192L289.32 19.7125L291.565 22.6058L291.539 27.0454C291.51 31.8536 290.262 36.7585 287.181 44.1801C285.296 48.7189 284.146 52.8821 283.871 56.1626L283.551 59.9836L284.583 61.9941C285.151 63.1002 286.266 64.6133 287.061 65.3568C288.995 67.1649 294.475 69.5422 296.734 69.5533C297.736 69.5585 298.941 69.8063 299.412 70.1049C301.791 71.6104 296.111 72.3002 291.76 71.0337C287.673 69.8448 283.744 66.5125 281.939 62.7049L280.621 59.9235L281.265 56.1334C281.619 54.0489 283.247 48.8011 284.883 44.4716C289.862 31.2944 290.603 26.309 288.095 22.8378C283.846 16.9585 283.876 14.9591 288.324 7.56203C293.019 -0.246131 294.321 -0.846715 301.76 1.3667ZM70.1043 12.2559C70.8628 13.4588 71.6702 15.0332 71.8986 15.7544C72.6075 17.9918 71.2659 17.211 69.6453 14.4425C68.8 12.9993 67.847 11.8186 67.5266 11.8186C66.8438 11.8186 28.0316 31.4716 26.9149 32.3824C26.4989 32.7218 26.2368 33.4425 26.3323 33.9842C26.6393 35.7241 40.4597 61.9113 41.2362 62.2244C41.6486 62.3912 42.9355 62.0174 44.0971 61.3947C46.0993 60.3206 47.1863 60.2985 47.1863 61.3329C47.1863 61.8985 41.5601 64.8798 40.4922 64.8798C40.074 64.8798 38.8839 63.2402 37.8475 61.2355C36.8117 59.2314 34.9849 55.7544 33.7877 53.5095C26.5676 39.9655 23.2436 33.2769 23.4399 32.6874C23.8658 31.4081 65.6129 10.0693 67.6897 10.0693C68.2594 10.0693 69.3464 11.0536 70.1043 12.2559ZM84.5591 15.7544C86.8438 19.7235 89.1297 24.0326 89.1297 24.3719C89.1297 25.5125 87.7002 23.895 85.769 20.5708C84.5602 18.4891 83.1499 16.7049 82.6349 16.6058C81.5531 16.397 41.9149 35.9918 41.1302 37.123C40.7795 37.6279 41.5368 39.5842 43.4324 43.0687C44.9861 45.9247 48.2687 52.19 50.7276 56.9912C53.1866 61.7923 55.6123 65.9818 56.1191 66.302L57.0395 66.8827L70.7224 59.9218C78.2483 56.0926 84.5777 53.1317 84.7874 53.3416C85.5698 54.1253 84.1903 55.127 78.1487 58.1609C74.7362 59.874 68.4656 63.0232 64.2136 65.1591C59.9616 67.295 56.0294 68.9585 55.4754 68.8559C54.8701 68.7439 53.3514 66.4611 51.6684 63.1305C50.1282 60.0839 46.4989 53.0192 43.6036 47.4308L38.3392 37.2699L39.6482 36.2821C40.7917 35.4186 52.7298 29.2157 75.7119 17.5434C79.3855 15.6775 82.6716 14.151 83.0135 14.151C83.3555 14.151 84.0511 14.8722 84.5591 15.7544ZM79.5346 25.5212C77.4264 27.2454 57.4135 37.4746 56.1488 37.4746C53.6829 37.4746 56.7424 35.4932 67.607 30.0524C79.5602 24.067 82.8312 22.8244 79.5346 25.5212ZM355.508 26.7993C356.073 26.9469 356.926 27.825 357.404 28.7504L358.274 30.4337L357.635 33.225C356.667 37.453 354.675 41.169 352.932 41.9982L351.384 42.7346L349.729 42.1049C345.954 40.6681 345.141 38.0553 346.924 33.1014C347.385 31.8186 347.767 30.3288 347.772 29.7912C347.793 27.4524 351.91 25.86 355.508 26.7993ZM101.963 27.8198C116.076 33.0262 126.837 45.8203 136.324 68.6699C137.656 71.8769 138.972 75.0256 139.249 75.667C139.526 76.3084 140.134 78.0139 140.601 79.4571C141.067 80.9002 141.85 83.1305 142.339 84.4133C143.058 86.2967 147.871 101.391 150.335 109.486C151.687 113.932 154.488 122.43 154.947 123.48C155.226 124.122 156.258 126.796 157.239 129.423C161.013 139.524 166.477 149.627 172.158 157.008C181.436 169.061 196.43 178.842 210.093 181.756C213.654 182.515 215.069 186.163 211.803 186.163C208.318 186.163 198.708 183.007 191.949 179.643C176.07 171.74 163.675 156.562 153.942 133.101C150.269 124.249 147.997 117.747 142.43 100.157C133.917 73.2547 128.823 61.0215 121.595 50.1171C115.445 40.8396 105.636 32.3988 98.447 30.1976C93.8088 28.7772 92.625 28.2442 92.625 27.5743C92.625 26.7253 99.4839 26.9049 101.963 27.8198ZM92.399 31.0098C100.135 33.7982 107.771 40.8967 107.771 45.3002C107.771 48.3148 106.496 47.727 102.81 43.0139C98.6183 37.6542 94.2998 34.4956 89.1297 33.0063C85.0408 31.8291 84.8568 31.7072 85.6776 30.7171C86.591 29.6151 88.7965 29.7113 92.399 31.0098ZM279.563 31.8635L280.22 32.6553L279.454 33.2909C279.034 33.6402 275.557 34.8757 271.729 36.0361C267.9 37.1964 263.981 38.4804 263.02 38.8891C262.059 39.2979 259.175 40.5043 256.612 41.5696C234.612 50.7119 212.781 65.3428 195.727 82.3725C184.401 93.6821 176.967 103.192 167.631 118.316C162.242 127.046 161.305 128.179 159.917 127.645C153.579 125.211 182.484 87.4985 206.769 66.5183C217.186 57.5189 226.903 51.3148 243.949 42.7818C255.587 36.9556 261.194 35.0547 277.663 31.3515C278.347 31.1976 279.202 31.4279 279.563 31.8635ZM86.0236 36.8676C91.5904 38.1947 100.87 47.2162 99.294 49.7684C98.6555 50.8023 97.8633 50.2606 93.3718 45.7212L88.8385 41.1399L85.4667 39.8903C83.6124 39.2028 81.0568 38.6407 79.7868 38.6407C77.4019 38.6407 76.5211 37.3842 78.4004 36.6623C79.6028 36.2005 83.6859 36.3101 86.0236 36.8676ZM311.434 41.2192C312.426 43.8046 307.412 46.9877 302.342 46.9906C298.907 46.9923 295.352 45.5801 295.352 44.2139C295.352 43.0804 296.246 42.8967 299.639 43.3323C303.142 43.7824 306.575 43.1066 308.782 41.5335C310.695 40.1696 311.018 40.1317 311.434 41.2192ZM81.6842 42.6868C83.1965 43.2781 85.5034 44.6104 86.8112 45.6472C89.2544 47.5836 92.6099 52.7154 92.6198 54.5299C92.6297 56.4489 90.4632 55.5853 88.2291 52.7807C83.6351 47.0127 80.0997 44.7632 75.628 44.7632C72.3034 44.7632 70.3577 46.0652 67.717 50.0576C66.6737 51.6355 65.5838 53.0057 65.2948 53.1031C64.2264 53.4623 64.1262 52.1241 65.0245 49.4856C67.3215 42.7375 74.4163 39.8425 81.6842 42.6868ZM63.3514 42.9393C63.1423 43.6425 55.5634 47.7947 54.2881 47.9043C52.6232 48.0477 54.467 46.7043 58.8932 44.5486C61.4529 43.302 63.4592 42.5778 63.3514 42.9393ZM312.62 48.8518C313.628 51.4821 307.56 55.5504 302.628 55.5504H299.602L297.657 54.2384C296.587 53.5165 295.763 52.6641 295.825 52.3434C295.891 52.004 298.224 51.7603 301.404 51.7603H306.868L309.56 49.8267L312.252 47.8926L312.62 48.8518ZM210.919 52.5988C215.201 53.0477 217.873 53.9317 217.873 54.899C217.873 55.1597 216.889 55.8104 215.688 56.3445L213.504 57.3154L204.959 56.7609C186.258 55.5469 163.177 58.8419 144.15 65.4407C139.056 67.2075 138.064 67.2547 138.064 65.7299C138.064 64.4582 145.866 60.8332 152.627 58.9638C153.749 58.6536 155.584 58.1375 156.705 57.8162C161.476 56.4501 168.529 54.8955 175.055 53.7719L182.046 52.5678L194.28 52.3521C201.008 52.2332 208.496 52.3445 210.919 52.5988ZM312.828 57.5457C312.828 58.86 308.168 62.5025 305.601 63.1941C302.719 63.9708 299.226 63.46 296.689 61.8909C294.811 60.7288 294.086 59.0489 295.462 59.0489C295.843 59.0489 297.657 59.3591 299.492 59.7387L302.828 60.4285L305.352 59.6728C306.74 59.2571 308.572 58.4221 309.422 57.8168C311.256 56.5125 312.828 56.3871 312.828 57.5457ZM278.225 58.5603C278.728 59.3754 278.039 59.9533 268.263 66.9095C234.405 91.0011 214.842 119.16 206.882 155.259C204.642 165.417 204.301 166.338 202.773 166.338C201.177 166.338 200.784 165.442 200.904 162.071C201.055 157.785 205.527 140.96 207.4 137.628C207.713 137.072 207.969 136.34 207.969 136.003C207.969 135.666 209.469 132.055 211.302 127.978C214.143 121.657 216.009 118.001 219.846 111.235C223.204 105.314 230.93 95.2057 238.52 86.804C247.468 76.899 262.609 64.9754 272.699 59.8897C277.066 57.6885 277.606 57.5585 278.225 58.5603ZM74.1553 68.5574C78.3788 72.9731 81.0271 74.8157 88.4586 78.5119C95.7312 82.1288 99.262 84.5428 103.377 88.7119C111.901 97.3492 117.195 110.988 120.551 132.953C120.906 135.277 121.454 138.819 121.769 140.825C122.084 142.831 122.863 148.014 123.5 152.343C124.766 160.957 126.175 168.984 126.978 172.168C127.262 173.291 128.065 176.571 128.765 179.457C133.665 199.675 141.234 213.977 153.455 226.104C163.194 235.77 174.026 242.57 188.858 248.328C193.88 250.277 204.381 253.202 206.397 253.213C206.973 253.216 208.234 253.627 209.199 254.126L210.953 255.034L210.772 256.604L210.591 258.174L209.139 258.379C203.905 259.118 180.265 250.702 169.23 244.172C143.84 229.147 129.132 207.129 122.108 173.626C120.156 164.317 119.849 162.461 116.5 139.807C113.31 118.231 109.979 106.469 104.642 97.9311C100.355 91.0711 95.3863 87.0063 84.149 81.1655C77.8021 77.867 75.7055 76.5445 73.2018 74.2611C70.1777 71.5031 68.2681 66.1842 69.9319 65.155C70.2668 64.948 72.1677 66.4786 74.1553 68.5574ZM390.674 71.0023C391.356 71.9643 392.25 74.2606 392.66 76.1049L393.405 79.4588L392.635 82.8104C392.211 84.6541 391.396 87.1696 390.822 88.4005C388.933 92.4594 388.883 96.3492 390.646 102.143C391.416 104.674 389.88 102.934 388.306 99.492C386.381 95.285 386.423 93.3579 388.557 88.1183L390.303 83.8302L390.305 79.2728C390.306 76.7667 390.028 74.1952 389.688 73.5591C389.348 72.9229 389.152 71.6938 389.251 70.8279L389.433 69.253L390.674 71.0023ZM264.989 78.7299C274.837 88.7848 281.134 100.592 283.982 114.335C285.131 119.882 285.132 132.147 283.985 138.203C282.406 146.533 279.217 154.48 275.035 160.507C272.414 164.283 271.25 164.599 271 161.605L270.823 159.496L272.484 156.648C275.833 150.907 278.151 144.905 279.688 137.992C280.67 133.578 280.661 118.736 279.674 114.216C277.17 102.751 271.247 91.5562 262.979 82.6641C261.19 80.7399 259.322 78.5737 258.828 77.8506L257.93 76.5358L258.653 75.6641C259.912 74.1469 261.032 74.6891 264.989 78.7299ZM382.093 81.7451C383.012 83.3888 382.632 89.7194 381.487 91.8442C381.091 92.5783 380.76 95.4798 380.737 98.4116L380.695 103.663L384.336 108.506C387.793 113.104 388.694 115.026 387.394 115.026C387.074 115.026 386.811 114.801 386.811 114.527C386.811 114.252 385.296 112.35 383.443 110.3C381.591 108.249 379.582 105.793 378.979 104.843L377.883 103.115L377.908 97.9912C377.921 95.1725 378.197 92.5393 378.521 92.1387C379.097 91.425 380.804 84.6699 381.135 81.7894L381.303 80.3317L382.093 81.7451ZM179.133 83.1708L183.211 83.8302L183.389 85.0804L183.567 86.3299L169.991 86.6571C162.524 86.8372 154.594 87.2302 152.369 87.5299C148.14 88.1014 145.637 87.5655 145.637 86.0897C145.637 84.7037 147.919 84.0711 155.995 83.2186C165.214 82.2448 173.31 82.2285 179.133 83.1708ZM406.731 91.4261C406.923 91.618 406.952 92.7428 406.795 93.9253C406.639 95.1078 406.922 98.2384 407.425 100.882L408.34 105.689L407.73 107.293C407.024 109.153 404.291 112.891 403.914 112.514C403.773 112.372 404.223 111.298 404.914 110.127L406.17 107.997L405.832 104.368C405.646 102.372 405.325 99.271 405.118 97.4751L404.741 94.211L405.561 92.6436C406.012 91.7818 406.539 91.2337 406.731 91.4261ZM399.628 94.2786C399.628 94.4133 400.039 96.1328 400.543 98.0996L401.458 101.676L400.862 104.461C400.534 105.992 399.45 109.009 398.453 111.165C397.455 113.322 396.715 115.663 396.807 116.368C396.899 117.073 396.72 117.781 396.408 117.941C395.109 118.609 395.577 114.078 397.329 109.019L399.187 103.655L398.889 98.8448C398.725 96.1987 398.825 94.0343 399.11 94.0343C399.394 94.0343 399.628 94.1445 399.628 94.2786ZM102.505 100.129C103.931 101.848 102.817 103.016 96.6184 106.301C88.2169 110.753 85.91 112.451 66.8281 128.23C62.0098 132.214 60.2622 132.414 62.7106 128.701C66.7611 122.559 78.5052 112.304 89.1385 105.623C99.2503 99.2705 101.147 98.4909 102.505 100.129ZM234.475 109.766C245.59 118.57 261.787 145.186 266.242 161.964C270.413 177.68 271.181 183.42 271.115 198.407C271 224.336 266.046 245.296 254.993 266.629C239.303 296.907 209.381 321.473 188.243 321.431C185.796 321.426 183.403 321.174 182.925 320.872L182.056 320.322L182.683 319.694C183.028 319.349 185.445 318.556 188.056 317.932C210.352 312.602 230.842 296.789 245.469 273.626C251.583 263.943 258.969 246.414 261.5 235.579C262.849 229.802 263.269 227.742 263.851 224.063C264.181 221.979 264.738 218.599 265.09 216.553C265.918 211.743 265.958 187.901 265.146 183.788C264.803 182.047 264.231 178.524 263.875 175.958C263.519 173.393 263.003 170.507 262.727 169.545C262.451 168.582 261.918 166.614 261.542 165.171C256.644 146.346 246.109 126.614 233.928 113.444C228.478 107.552 228.815 105.282 234.475 109.766ZM293.853 113.609C295.328 115.085 297.478 119.094 299.148 123.48C300.002 125.725 300.927 128.087 301.203 128.728C303 132.905 305.928 146.269 307.032 155.333L307.716 160.947L307.061 170.61C306.471 179.318 304.943 189.335 303.487 194.034C296.169 217.665 286.828 231.901 270.655 244.075C267.328 246.579 265.969 246.853 266.512 244.909C267.268 242.21 268.222 240.974 271.77 238.092C280.004 231.406 288.9 219.09 293.583 207.896C294.626 205.403 295.701 202.839 295.972 202.198C297.115 199.489 299.535 190.484 300.516 185.288C302.902 172.641 302.805 154.01 300.29 142.027C297.72 129.784 295.922 123.49 293.365 117.778C291.272 113.104 291.49 111.244 293.853 113.609ZM358.748 121.61C359.654 122.702 359.547 122.769 354.48 124.279C350.376 125.501 347.276 127.149 334.965 134.655C326.988 139.518 319.842 142.591 314.143 143.61L309.978 144.356L308.428 143.339C306.445 142.038 306.973 141.635 311.878 140.704C319.542 139.249 325.623 136.473 337.854 128.848C346.425 123.505 351.081 121.347 354.759 121.013L358.009 120.718L358.748 121.61ZM408.056 123.221L414.446 124.284L415.223 125.34L416 126.396L415.641 138.932C415.442 145.827 415.036 153.886 414.736 156.84C414.436 159.793 414.191 163.78 414.191 165.699V169.188L412.88 170.638L411.57 172.088L406.327 173.394L401.084 174.701L394.967 174.717L388.85 174.733L383.607 173.383C380.724 172.64 377.316 171.329 376.034 170.47L373.704 168.907V150.275V131.644L368.257 131.475C364.741 131.367 362.52 131.547 361.994 131.984C361.469 132.421 361.179 133.852 361.179 136.017C361.179 138.329 360.9 139.605 360.281 140.119L359.382 140.865L358.759 140.242C357.806 139.288 358.104 131.396 359.153 129.792L360.041 128.437H367.033H374.025L374.372 126.7C374.562 125.746 375.066 124.676 375.491 124.323C378.418 121.891 396.411 121.283 408.056 123.221ZM43.9415 124.792C45.3694 126.316 48.9363 130.579 51.8683 134.268C54.8002 137.956 57.8603 141.76 58.6678 142.722C61.316 145.877 68.9829 155.333 71.3702 158.388C72.6564 160.034 76.2048 164.53 79.255 168.378C86.7733 177.863 87.3821 178.792 87.3821 180.771V182.487L84.0324 185.738C78.8524 190.766 51.2152 213.578 49.0068 214.649L47.0407 215.603L44.1728 212.399C42.5959 210.637 40.9397 208.516 40.4934 207.686L39.6814 206.178L42.1234 204.152C45.6006 201.268 45.8383 201.176 47.3325 202.156L48.6771 203.038L50.388 202.15C52.11 201.255 57.7957 196.787 69.6144 187.04C73.1388 184.133 76.743 181.297 77.6244 180.738C78.5058 180.179 79.2259 179.531 79.2247 179.298C79.2235 179.065 76.4052 175.566 72.9623 171.524C66.0801 163.444 52.8196 147.24 45.455 137.912C42.8597 134.625 40.4323 131.935 40.0606 131.935C39.0907 131.935 34.9703 134.887 34.8614 135.659C34.8113 136.016 34.746 137.347 34.7157 138.617L34.6616 140.925L28.2535 146.039C24.7291 148.852 21.3212 151.563 20.6804 152.064C19.0254 153.357 17.1892 153.709 15.8453 152.989L14.6883 152.369L13.1696 153.565C10.5225 155.648 10.9501 156.798 17.1851 164.37C18.4667 165.926 19.9965 167.728 20.5843 168.372C21.1721 169.017 22.057 170.317 22.551 171.261L23.4481 172.977L21.9166 174.296C19.9586 175.982 16.6247 176.653 15.3734 175.614C14.8648 175.191 13.2495 173.259 11.7838 171.32C10.3187 169.381 7.76068 166.09 6.1004 164.005C2.96106 160.063 -3.05176e-05 155.322 -3.05176e-05 154.237C-3.05176e-05 153.356 2.42514 151.158 13.1073 142.359C30.356 128.152 38.5582 122.023 40.3239 122.023C40.886 122.023 42.5143 123.269 43.9415 124.792ZM380.986 128.432C388.796 130.279 403.712 130.837 409.506 129.498L412.484 128.81L413.309 129.644L414.135 130.477L413.586 139.224C413.284 144.034 412.886 152.168 412.703 157.3C412.295 168.718 412.264 168.882 410.32 169.768C406.956 171.303 399.196 172.743 394.276 172.747C386.95 172.753 376.218 169.959 375.642 167.896C375.537 167.52 375.583 158.422 375.743 147.679L376.034 128.145L377.491 128.047C378.292 127.993 379.865 128.167 380.986 128.432ZM31.7191 135.634C33.8751 138.463 33.6194 139.603 30.1107 142.81C26.8682 145.773 18.5296 151.76 17.6453 151.76C17.3622 151.76 16.1179 150.722 14.8806 149.454L12.6302 147.147L13.4516 146.132C16.0026 142.978 27.7776 133.701 29.2433 133.691C29.7879 133.687 30.9018 134.562 31.7191 135.634ZM351.567 141.785L354.48 143.305L357.975 143.291C359.898 143.284 362.584 143.054 363.946 142.779L366.422 142.282V143.14C366.422 144.62 364.261 146.043 360.763 146.866L357.393 147.659L354.345 146.781C351.105 145.848 346.186 141.85 346.885 140.718C347.417 139.855 348.221 140.038 351.567 141.785ZM114.119 142.964C114.568 143.248 114.771 143.9 114.572 144.418C114.182 145.434 113 145.998 108.936 147.106C103.009 148.722 96.7535 150.9 88.6911 154.152C80.37 157.509 78.0613 158.14 78.0613 157.06C78.0613 156.216 81.312 153.703 85.2296 151.519C89.1991 149.306 98.1132 146.093 106.458 143.868C112.408 142.28 112.941 142.217 114.119 142.964ZM349.297 149.213C353.31 151.076 357.054 151.515 360.952 150.579C362.709 150.157 364.281 149.594 364.445 149.328C364.609 149.062 365.271 148.845 365.917 148.845C367.667 148.845 367.06 150.606 364.78 152.143C362.217 153.872 357.292 154.924 354.044 154.437C351.229 154.014 346.22 151.178 345.647 149.682C344.999 147.992 346.303 147.824 349.297 149.213ZM366.74 156.468C367.827 158.228 361.506 161.863 356.113 162.579L353.133 162.975L350.02 161.522C346.565 159.91 344.285 157.991 344.285 156.694C344.285 155.611 345.14 155.611 346.79 156.693C347.503 157.161 349.759 157.973 351.801 158.497C356.23 159.633 359.424 159.289 363.222 157.268C366.308 155.626 366.231 155.643 366.74 156.468ZM365.552 165.177C366.106 166.075 364.237 168.003 361.774 169.076C360.614 169.581 357.824 170.004 355.354 170.049L350.985 170.128L348.286 168.54C345.748 167.046 344.43 165.415 345.166 164.678C345.346 164.499 346.728 164.846 348.239 165.449C353.133 167.406 358.925 167.179 364.475 164.814C364.847 164.656 365.331 164.82 365.552 165.177ZM342.21 167.842C342.717 168.349 343.006 168.967 342.853 169.214C342.7 169.462 340.535 169.98 338.042 170.365C328.493 171.841 322.829 172.943 317.488 174.361C309.895 176.378 309.519 176.441 309.104 175.768C307.926 173.861 318.129 170.101 329.925 168.094C338.261 166.677 340.99 166.621 342.21 167.842ZM215.458 170.192C220.169 173.495 224.268 194.479 224.274 215.317C224.282 245.154 217.804 267.137 204.25 283.261C199.983 288.336 191.731 295.2 189.896 295.2C188.376 295.2 189.743 293.035 193.876 288.899C209.476 273.284 217.509 250.385 218.846 217.718C219.379 204.709 217.931 194.065 213.509 178.468C211.894 172.771 211.872 170.252 213.432 169.653C213.878 169.482 214.79 169.724 215.458 170.192ZM102.165 174.355C102.329 174.916 102.742 178.262 103.082 181.789C104.402 195.449 105.673 199.639 113.344 215.609C120.113 229.702 127.664 238.368 141.084 247.444C149.488 253.126 155.252 255.69 166.963 258.953C178.146 262.07 189.912 263.87 198.645 263.803C200.291 263.79 201.74 264.1 202.108 264.544L202.741 265.308L201.772 266.114L200.804 266.921L192.544 267.108L184.284 267.295L179.412 266.37C162.567 263.171 144.468 255.579 133.277 247.017C117.77 235.153 105.653 216.027 100.817 195.784C99.1734 188.903 99.3552 173.335 101.079 173.335C101.512 173.335 102.001 173.794 102.165 174.355ZM27.9622 175.534C27.9622 177.051 24.8124 180.618 22.5061 181.714C18.7149 183.514 13.2564 182.48 14.1565 180.133L14.5206 179.182L17.131 179.54L19.7408 179.898L22.2504 178.426C23.6304 177.616 25.2587 176.402 25.8686 175.728C27.2236 174.229 27.9622 174.161 27.9622 175.534ZM32.6227 183.039C32.6227 184.651 27.3185 189.461 24.6656 190.255C21.1156 191.318 16.8466 189.812 17.6284 187.774L17.9692 186.884L20.3 187.507L22.6308 188.129L25.0134 187.054C26.3241 186.462 28.2448 185.104 29.2811 184.035C31.3346 181.92 32.6227 181.536 32.6227 183.039ZM37.5247 187.832C38.3531 189.173 33.9771 194.724 30.7585 196.414C27.8207 197.958 22.1368 197.197 22.1368 195.261V194.487L25.1952 194.516C28.9159 194.551 30.9711 193.535 34.4751 189.926C36.1034 188.25 37.283 187.44 37.5247 187.832ZM43.691 194.809C43.691 196.665 40.1643 201.292 37.6057 202.793C35.0105 204.315 32.1385 204.644 30.254 203.635C28.3735 202.627 28.8669 201.323 31.1284 201.323C34.1577 201.323 35.7515 200.503 39.5899 196.971C41.5199 195.195 43.232 193.743 43.3945 193.743C43.5576 193.743 43.691 194.223 43.691 194.809ZM350.985 208.165C358.48 208.819 365.274 211.867 370.194 216.782C377.449 224.03 380.074 232.82 377.812 242.294C376.683 247.019 374.116 251.455 369.626 256.437C366.223 260.213 356.264 264.304 350.518 264.288C348.852 264.283 345.801 263.881 343.737 263.394C341.673 262.907 339.667 262.63 339.28 262.779C338.893 262.928 337.861 264.365 336.986 265.975C335.908 267.958 334.729 269.217 333.33 269.882L331.265 270.863L327.414 270.539C323.235 270.189 320.401 269.188 320.401 268.064C320.401 267.192 324.059 261.044 325.566 259.384C326.169 258.719 326.949 257.619 327.298 256.94L327.932 255.705L325.645 252.637C324.387 250.949 322.63 247.7 321.742 245.416L320.127 241.265L320.151 236.017L320.176 230.769L321.407 227.562C323.315 222.595 324.322 220.865 327.124 217.746C332.827 211.398 342.683 207.44 350.985 208.165ZM355.045 210.691C358.017 211.188 358.291 211.288 363.158 213.645C367.37 215.684 371.815 220.266 373.862 224.679C377.12 231.704 377.653 237.24 375.69 243.682C371.44 257.631 358.683 264.442 343.025 261.121C338.447 260.149 336.327 259.146 332.206 256C317.287 244.612 319.479 221.291 336.236 213.144C342.222 210.233 347.892 209.494 355.045 210.691ZM356.519 217.55C362.337 219.715 366.111 223.101 368.843 228.602L370.209 231.352L370.165 236.891L370.121 242.431L368.813 244.967C367.054 248.375 363.521 252.103 360.792 253.428C359.563 254.025 358.152 254.716 357.655 254.964C357.159 255.212 355.292 255.742 353.508 256.141L350.263 256.868L346.781 256.254C339.403 254.953 333.877 250.932 330.763 244.597L328.848 240.702L328.875 235.153L328.903 229.603L330.281 227.27C334.497 220.134 341.074 216.466 349.528 216.537C352.093 216.559 354.98 216.977 356.519 217.55ZM356.8 219.063C361.504 220.817 365.379 224.388 367.575 228.994L369.335 232.685V236.865V241.045L367.861 244.164C365.736 248.659 362.652 251.571 358.069 253.407L354.177 254.967H349.198H344.22L340.612 253.18C333.066 249.443 329.747 244.14 329.731 235.793C329.719 230.192 330.577 227.496 333.387 224.301C338.669 218.294 348.713 216.047 356.8 219.063ZM112.432 228.425C112.432 230.239 102.964 233.937 90.0036 237.184C73.4161 241.341 69.4956 241.886 70.7445 239.864C71.8834 238.019 79.3657 235.619 89.1297 233.967C91.5327 233.56 97.3821 231.953 102.128 230.395C111.529 227.308 112.432 227.136 112.432 228.425ZM338.775 230.014C344.886 237.139 352.079 247.97 350.7 247.97C350.37 247.97 349.382 246.918 348.503 245.633C347.625 244.348 344.589 240.156 341.756 236.319C338.923 232.481 336.705 229.04 336.828 228.673C336.951 228.305 337.826 228.909 338.775 230.014ZM53.6223 232.705C57.371 234.217 60.116 236.188 66.1506 241.697C74.7298 249.53 75.7079 251.332 73.6369 255.487C72.2469 258.275 68.8 261.381 67.096 261.381C66.0824 261.381 64.4198 260.212 61.7075 257.591C59.5503 255.507 57.5102 253.801 57.1735 253.801C56.8368 253.801 56.0905 254.475 55.515 255.299C53.5145 258.162 51.902 259.514 49.3056 260.507L46.6941 261.505L43.7091 260.512C37.9908 258.612 31.1412 250.502 30.0478 244.339L29.6621 242.165L32.0902 239.528C33.426 238.078 34.7542 236.891 35.0414 236.891C35.3291 236.891 35.8365 237.609 36.1698 238.486C37.5329 242.075 38.6002 243.781 41.7413 247.389C45.5144 251.725 48.5192 254.172 48.8495 253.179C49.1279 252.344 48.2285 250.599 44.4909 244.73C42.8458 242.147 40.9519 238.958 40.2825 237.645L39.065 235.256L39.7763 234.68C40.8587 233.802 45.9065 232.213 48.5862 231.908C50.1148 231.734 51.9259 232.02 53.6223 232.705ZM291.5 240.891C294.922 243.756 300.716 248.136 304.375 250.628C311.091 255.2 312.362 256.484 310.773 257.095C308.542 257.951 299.115 252.493 291.747 246.079C287.806 242.647 283.564 237.592 283.866 236.686C284.338 235.268 285.629 235.979 291.5 240.891ZM340.787 241.579C342.182 243.651 343.599 245.529 343.934 245.752C344.664 246.238 344.008 247.062 343.259 246.598C342.235 245.964 337.824 239.091 338.035 238.458C338.154 238.103 339.392 239.508 340.787 241.579ZM80.9741 250.276C80.9741 253.126 78.2943 259.624 76.2152 261.816C73.2338 264.957 68.158 266.908 68.158 264.912C68.158 264.647 69.0138 264.023 70.0601 263.526C73.3258 261.975 74.707 259.803 78.5606 250.157C79.4362 247.966 80.9741 248.042 80.9741 250.276ZM134.568 251.49L135.442 252.076L134.162 253.153C133.458 253.745 131.571 254.659 129.969 255.184C125.339 256.7 114.746 262.247 108.063 266.656C104.682 268.886 101.529 270.711 101.057 270.711C98.6608 270.711 101.218 267.805 107.771 263.079C112.868 259.403 123.841 253.88 129.553 252.114C131.738 251.438 133.564 250.89 133.61 250.894C133.657 250.9 134.088 251.167 134.568 251.49ZM86.7996 256.03C86.7996 263.087 80.4533 270.711 74.5777 270.711C71.4529 270.711 71.482 269.39 74.6348 268.127C79.5818 266.146 81.3003 264.073 84.6971 255.988C85.878 253.176 86.7996 253.195 86.7996 256.03ZM321.647 259.048L323.023 260.214L321.892 261.089C321.27 261.571 320.221 261.965 319.562 261.967C317.911 261.97 314.841 263.932 313.656 265.742L312.674 267.243L313.028 269.826C313.251 271.459 313.143 272.557 312.734 272.81C311.883 273.336 310.204 271.061 309.358 268.234L308.684 265.982L309.737 263.84C310.315 262.661 311.923 260.838 313.31 259.789L315.831 257.883H318.052C319.425 257.883 320.797 258.328 321.647 259.048ZM92.0425 262.862C92.0425 264.971 90.5284 268.48 88.3246 271.479C85.8908 274.789 79.8934 277.252 77.4502 275.943C75.8721 275.098 76.3964 274.609 80.2115 273.371C84.0051 272.139 86.3528 269.763 88.7289 264.751C90.8011 260.379 92.0425 259.672 92.0425 262.862ZM271.176 268.432C281.161 275.303 289.468 280.149 298.133 284.158C301.105 285.533 303.444 286.94 303.331 287.284C302.333 290.335 286.63 284.351 275.595 276.715C268.32 271.682 259.493 263.543 260.151 262.476C260.78 261.459 262.002 262.119 271.176 268.432ZM96.4477 267.271C97.1736 268.446 95.4143 274.094 93.6591 276.225C91.3533 279.025 87.5615 281.535 84.8964 282.025C80.7876 282.781 80.5919 280.735 84.6453 279.403C87.7945 278.368 91.3253 274.798 93.3549 270.598C95.0857 267.015 95.8092 266.237 96.4477 267.271ZM343.12 272.707C343.12 273.958 339.664 277.162 337.016 278.366C335.409 279.097 333.303 279.43 330.304 279.426L325.935 279.42L322.762 277.835C317.74 275.328 316.99 272.668 321.73 274.178C323.082 274.608 326.471 275.072 329.262 275.209L334.336 275.457L338.083 273.667C342.276 271.664 343.12 271.503 343.12 272.707ZM100.489 279.898C102.091 282.052 104.254 285.49 105.295 287.537L107.189 291.259V294.6C107.189 298.364 106.417 301.087 104.624 303.655L103.402 305.405L103.364 313.859L103.325 322.314L102.274 325.23C98.1051 336.793 85.3449 338.834 72.2393 330.033C70.7958 329.063 68.641 327.345 67.4514 326.215L65.2878 324.16L62.0273 324.89L58.7668 325.62L55.744 324.919C43.1359 321.995 32.4333 309.754 27.9407 293.119C26.7162 288.586 25.6356 275.13 26.75 278.291C27.0325 279.093 27.2894 280.75 27.3215 281.975C27.5067 289.075 33.1679 303.881 38.3986 310.944C41.2292 314.767 47.0127 319.789 50.4416 321.402C55.5098 323.787 60.3029 324.275 62.8429 322.663L63.6445 322.154L61.7302 318.153L59.8166 314.151L59.7641 309.876L59.7111 305.6L61.3457 304.191C62.2446 303.415 63.451 302.781 64.0266 302.781C65.5768 302.781 68.8186 305.157 70.3286 307.4L71.6533 309.367V312.981C71.6533 316.666 70.67 319.497 68.6264 321.695C68.0485 322.317 67.5813 323.104 67.5883 323.445C67.6285 325.349 73.2245 329.722 78.5128 331.98L82.4305 333.653L87.551 333.669L92.6716 333.684L94.9447 332.523C99.7892 330.05 101.946 324.908 101.946 315.831C101.946 312.539 101.692 309.69 101.382 309.498C101.073 309.307 99.3587 310.34 97.5732 311.796C95.4504 313.527 93.7651 314.442 92.7025 314.442C88.0491 314.442 77.4788 303.081 77.4788 298.079V295.873L79.3686 293.982C81.0044 292.344 84.6249 290.352 88.1237 289.164C89.608 288.659 89.9756 287.217 88.895 286.136C87.4817 284.721 87.7567 283.846 90.1492 282.139C91.3504 281.281 93.1202 279.553 94.0814 278.296C95.0426 277.04 96.2223 276.006 96.7029 275.998C97.1834 275.989 98.8874 277.745 100.489 279.898ZM169.235 280.451C171.155 281.954 173.011 283.461 173.36 283.799C173.709 284.137 177.096 287.037 180.884 290.244C184.674 293.451 189.5 297.649 191.61 299.574C193.719 301.498 196.296 303.777 197.338 304.638C199.193 306.172 199.872 308.028 198.579 308.028C198.22 308.028 195.3 305.733 192.089 302.926C188.879 300.121 183.864 295.776 180.946 293.272C178.026 290.768 174.082 287.357 172.181 285.692C168.065 282.087 165.382 280.04 164.774 280.04C164.263 280.04 160.959 283.517 156.897 288.329C154.448 291.23 150.805 295.271 140.715 306.279C137.647 309.627 135.588 312.562 135.834 313.24C136.038 313.805 149.299 327.88 161.416 340.39C165.453 344.559 170.28 349.676 172.142 351.76C178.843 359.263 179.479 359.923 180.011 359.923C180.842 359.923 185.547 355.63 199.814 341.852C207.023 334.89 213.681 328.544 214.609 327.751L216.297 326.308L215.774 325.378C215.487 324.867 213.839 322.968 212.112 321.159L208.973 317.869L209.673 317.177L210.374 316.483L214.13 320.565C216.196 322.81 218.159 325.113 218.491 325.683L219.095 326.719L217.422 328.307C216.503 329.18 212.37 333.043 208.24 336.891C204.109 340.74 196.606 347.873 191.566 352.743C186.525 357.613 181.87 361.883 181.219 362.231L180.037 362.864L168.485 351.044C162.132 344.543 155.51 337.649 153.769 335.725C152.028 333.801 147.668 329.209 144.08 325.521C136.152 317.372 133.215 313.624 133.658 312.226C134.733 308.835 161.885 278.825 164.575 278.054L165.746 277.718L169.235 280.451ZM340.389 280.417C342.072 282.101 338.505 285.676 333.597 287.224C327.536 289.136 319.038 287.987 315.036 284.713L313.702 283.621L314.378 282.933L315.053 282.244L317.873 283.143C324.454 285.242 330.254 284.856 336.123 281.927C337.881 281.049 339.47 280.261 339.654 280.174C339.838 280.087 340.169 280.196 340.389 280.417ZM167.182 289.461C167.197 291.058 146.618 312.986 144.352 313.789C143.247 314.181 144.525 312.584 150.554 306.046C161.85 293.794 167.174 288.484 167.182 289.461ZM335.927 290.846C336.479 292.289 335.551 293.488 332.33 295.492L329.517 297.241H323.648H317.78L314.3 295.61C310.68 293.914 308.75 292.501 308.75 291.546C308.75 290.923 310.41 291.18 315.139 292.537C321.339 294.316 325.773 293.791 334.523 290.243C335.211 289.964 335.663 290.158 335.927 290.846ZM85.0595 294.55C87.6215 296.199 96.7029 305.521 96.7029 306.502C96.7029 308.883 92.2598 306.445 87.8068 301.62C82.9868 296.398 81.3376 292.155 85.0595 294.55ZM171.851 294.505C171.851 294.81 169.914 297.256 167.548 299.94C162.795 305.331 156.123 312.01 156.123 311.378C156.123 311.156 157.743 309.065 159.723 306.732C166.964 298.199 171.851 293.272 171.851 294.505ZM304.964 296.102C306.245 296.898 308.809 298.109 310.661 298.792C312.513 299.476 314.143 300.22 314.283 300.447C314.701 301.123 309.57 308.02 307.526 309.53C303.622 312.413 299.184 311.658 297.605 307.844L296.897 306.132L297.554 303.673C298.181 301.326 301.732 294.633 302.342 294.647C302.502 294.651 303.682 295.305 304.964 296.102ZM179.425 300.921C179.425 301.443 178.793 302.164 172.594 308.721C170.263 311.185 168.356 312.968 168.356 312.68C168.356 312.393 170.601 309.524 173.344 306.304C177.888 300.97 179.425 299.609 179.425 300.921ZM184.085 304.594C184.085 305.452 172.085 318.892 167.483 323.189L165.297 325.23L166.043 323.772C167.889 320.161 184.085 302.946 184.085 304.594ZM66.739 305.788C69.1233 307.483 69.9057 309.365 69.9057 313.405V316.8L68.3555 319.145C67.4357 320.536 66.4308 321.417 65.8838 321.311C65.377 321.214 63.9777 319.216 62.7736 316.873L60.5849 312.612V309.839V307.066L61.933 305.798C63.6241 304.208 64.5148 304.206 66.739 305.788ZM135.151 320.253C135.151 320.563 134.365 321.712 133.403 322.808C132.442 323.904 131.656 325.328 131.656 325.973C131.656 326.718 133.935 329.244 137.903 332.893C154.2 347.887 160.937 354.37 169.677 363.473C174.878 368.89 179.439 373.325 179.812 373.328C180.185 373.332 183.092 370.776 186.27 367.649C189.448 364.523 195.165 359.078 198.973 355.55C213.628 341.975 213.213 342.502 210.882 340.39C209.518 339.154 209.382 338.349 210.539 338.349C211.478 338.349 214.377 341.584 214.377 342.631C214.377 343.342 189.223 368.569 183.585 373.513C181.868 375.019 180.027 376.25 179.494 376.25C178.96 376.25 174.991 372.419 170.673 367.736C166.355 363.053 161.642 358.153 160.201 356.847C158.759 355.54 154.553 351.565 150.855 348.014C145.135 342.52 141.082 338.743 130.345 328.897C129.464 328.089 128.743 327.053 128.743 326.594C128.743 325.747 134.013 319.69 134.749 319.69C134.97 319.69 135.151 319.943 135.151 320.253Z" fill="#C49A6C"/>
</svg>
